<svg xmlns="http://www.w3.org/2000/svg" viewBox="0 0 1024 1024" width="1024" height="1024" role="img" aria-label="jaxfolio logo">
  <title>jaxfolio</title>
  <path d="M 512.00 72.00 Q 666.33 422.90 893.05 732.00 Q 512.00 690.20 130.95 732.00 Q 357.67 422.90 512.00 72.00 Z" fill="none" stroke="#ffffff" stroke-width="2.60" stroke-linejoin="round" stroke-linecap="round"/>
  <path d="M 517.91 135.85 Q 645.13 437.90 834.80 705.19 Q 509.61 664.34 183.29 694.96 Q 381.26 433.76 517.91 135.85 Z" fill="none" stroke="#ffffff" stroke-width="2.46" stroke-linejoin="round" stroke-linecap="round"/>
  <path d="M 522.10 190.51 Q 626.81 450.44 785.37 681.50 Q 507.91 642.20 228.53 664.00 Q 401.29 443.35 522.10 190.51 Z" fill="none" stroke="#ffffff" stroke-width="2.33" stroke-linejoin="round" stroke-linecap="round"/>
  <path d="M 524.95 237.29 Q 610.97 460.92 743.43 660.57 Q 506.75 623.26 267.62 638.13 Q 418.27 451.83 524.95 237.29 Z" fill="none" stroke="#ffffff" stroke-width="2.19" stroke-linejoin="round" stroke-linecap="round"/>
  <path d="M 526.76 277.33 Q 597.30 469.66 707.85 642.12 Q 506.02 607.04 301.39 616.55 Q 432.68 459.30 526.76 277.33 Z" fill="none" stroke="#ffffff" stroke-width="2.05" stroke-linejoin="round" stroke-linecap="round"/>
  <path d="M 527.77 311.58 Q 585.49 476.95 677.68 625.87 Q 505.61 593.17 330.54 598.55 Q 444.90 465.88 527.77 311.58 Z" fill="none" stroke="#ffffff" stroke-width="1.91" stroke-linejoin="round" stroke-linecap="round"/>
  <path d="M 528.18 340.87 Q 575.30 483.02 652.11 611.57 Q 505.45 581.31 355.71 583.55 Q 455.25 471.67 528.18 340.87 Z" fill="none" stroke="#ffffff" stroke-width="1.77" stroke-linejoin="round" stroke-linecap="round"/>
  <path d="M 528.13 365.92 Q 566.50 488.08 630.44 599.01 Q 505.47 571.16 377.43 571.07 Q 464.03 476.76 528.13 365.92 Z" fill="none" stroke="#ffffff" stroke-width="1.64" stroke-linejoin="round" stroke-linecap="round"/>
</svg>
